<svg version="1.1" id="Layer_1" xmlns="http://www.w3.org/2000/svg" xmlns:xlink="http://www.w3.org/1999/xlink" x="0px" y="0px" viewBox="0 0 841.9 288.3" style="enable-background:new 0 0 841.9 288.3;" xml:space="preserve">
<style type="text/css">
		.st0{fill:#FFFFFF}
	.st1{fill-rule:evenodd;clip-rule:evenodd;}
	.st2{font-family:'ArialMT';}
	.st3{font-size:60px;}
	.st4{fill-rule:evenodd;clip-rule:evenodd;fill:#385CA6;}
	.st5{fill-rule:evenodd;clip-rule:evenodd;fill:#FFFFFF;}
	.st6{fill-rule:evenodd;clip-rule:evenodd;fill:#E73329;}
	.st7{font-size:40px;}
	.st8{fill:black;}
</style>
<g>
	<rect x="7.7" y="33" class="st0" width="828.3" height="193" style="stroke:black;stroke-width:12"></rect>
	<g>
		<!-- <path class="st1" d="M13.1,42.3c-0.4,1.3-0.6,2.7-0.6,4.1v166.5c0,1.5,0.1,3.1,0.6,4.5s1.4,2.6,2.4,3.9c2.5,1.3,5.1,2.1,7.7,2.1
			h798.3c1.6,0,3.1-0.2,4.5-0.7s2.6-1.5,3.8-2.4c1.6-2.4,2.5-4.9,2.5-7.5V46.7c0-1.5,0.1-3-0.4-4.4c-0.4-1.4-1.3-2.6-2.2-3.8
			c-1.3-0.8-2.6-1.7-4-2.1c-1.4-0.4-2.9-0.5-4.5-0.5l-798-0.1c-1.9-0.3-3.9,0.1-5.9,1.1c-0.9,0.5-1.7,1.1-2.5,2
			C14.2,39.7,13.5,41,13.1,42.3 M1.2,234.6h841.2V24.5H1.2V234.6z"></path> -->
				


				  	<text id="circleResize" text-anchor="middle" x="430" y="155" font-size="60" class="st8" style="text-transform: uppercase;font-family: kindersley">tdtuauu</text>
		  	



								<text text-anchor="middle" x="770" y="220" font-size="40"></text>
					</g>
	<rect x="655" y="232" width="70" height="37.9"></rect>
	<rect x="104.4" y="232" width="70" height="37.9"></rect>
</g>
</svg>
