<?xml version="1.0" encoding="utf-8"?>
<!-- Generator: Adobe Illustrator 16.0.0, SVG Export Plug-In . SVG Version: 6.00 Build 0)  -->
<!DOCTYPE svg PUBLIC "-//W3C//DTD SVG 1.1//EN" "http://www.w3.org/Graphics/SVG/1.1/DTD/svg11.dtd">
<svg version="1.1" id="Layer_1" xmlns="http://www.w3.org/2000/svg" xmlns:xlink="http://www.w3.org/1999/xlink" x="0px" y="0px"
	 width="366.043px" height="160.739px" viewBox="0 0 366.043 160.739" enable-background="new 0 0 366.043 160.739"
	 xml:space="preserve">
<line fill="none" stroke="#000000" stroke-miterlimit="10" x1="59.682" y1="7" x2="59.682" y2="29.363"/>
<line fill="none" stroke="#000000" stroke-miterlimit="10" x1="297.682" y1="7" x2="297.682" y2="29.363"/>
<line fill="none" stroke="#000000" stroke-miterlimit="10" x1="59.682" y1="133" x2="59.682" y2="155.363"/>
<line fill="none" stroke="#000000" stroke-miterlimit="10" x1="297.682" y1="133" x2="297.682" y2="155.363"/>
<g>
	<polyline fill="none" stroke="#000000" stroke-miterlimit="10" points="349.767,55.053 349.767,107.883 318.68,107.883 	"/>
	<line fill="none" stroke="#000000" stroke-miterlimit="10" x1="350.449" y1="55.053" x2="318.68" y2="55.053"/>
</g>
<g>
	<polyline fill="none" stroke="#000000" stroke-miterlimit="10" points="10.243,107.883 10.243,55.054 41.448,55.054 	"/>
	<line fill="none" stroke="#000000" stroke-miterlimit="10" x1="9.558" y1="107.883" x2="41.448" y2="107.883"/>
</g>
<g>
	<polyline fill="none" stroke="#000000" stroke-miterlimit="10" points="40.867,29.511 319.288,29.511 319.288,54.811 	"/>
	<line fill="none" stroke="#000000" stroke-miterlimit="10" x1="40.867" y1="28.956" x2="40.867" y2="54.811"/>
</g>
<g>
	<polyline fill="none" stroke="#000000" stroke-miterlimit="10" points="319.287,132.266 40.867,132.266 40.867,107.303 	"/>
	<line fill="none" stroke="#000000" stroke-miterlimit="10" x1="319.287" y1="132.811" x2="319.287" y2="107.48"/>
</g>
<image xlink:href="http://utilityitsolutions.com/wp/nsign/assets/backend/uploads/council-logo/logo-3.png" height="40" width="50" x="10" y="60"/>
  <text text-anchor="middle" x="170" y="75" font-size="20">Tilan Nagar Indore</text>
  <text text-anchor="middle" x="175" y="100" font-size="20">Madhya Pradesh</text>
    <image xlink:href="http://utilityitsolutions.com/wp/nsign/assets/backend/uploads/council-logo/Road-symbol.png" height="40" width="60" x="300" y="60"/>
</svg>